PathFileType	4	(X/Y/Z)	Run_400 02
DataRate	CameraRate	NumFrames	NumMarkers	Units	OrigDataRate	OrigDataStartFrame	OrigNumFrames
100	100	4	45	mm	100	1	137
Frame#	Time	LASI			RASI			LPSI			RPSI			RTH1			RTH2			RTH3			LTH1			LTH2			LTH3			RTB1			RTB2			RTB3			RLMAL			RMMAL			LTB1			LTB2			LTB3			RCAL			RTOE			RMT5			LCAL			LTOE			LMT5			LACR			RACR			CLAV			C7			LPSH			RUA1			RUA2			RUA3			RLEL			RMEL			LUA1			LUA2			LUA3			LLEL			LMEL			RFAsuperior			RFAradius			RFAulna			LFAsuperior			LFAradius			LFAulna		
		X1	Y1	Z1	X2	Y2	Z2	X3	Y3	Z3	X4	Y4	Z4	X5	Y5	Z5	X6	Y6	Z6	X7	Y7	Z7	X8	Y8	Z8	X9	Y9	Z9	X10	Y10	Z10	X11	Y11	Z11	X12	Y12	Z12	X13	Y13	Z13	X14	Y14	Z14	X15	Y15	Z15	X16	Y16	Z16	X17	Y17	Z17	X18	Y18	Z18	X19	Y19	Z19	X20	Y20	Z20	X21	Y21	Z21	X22	Y22	Z22	X23	Y23	Z23	X24	Y24	Z24	X25	Y25	Z25	X26	Y26	Z26	X27	Y27	Z27	X28	Y28	Z28	X29	Y29	Z29	X30	Y30	Z30	X31	Y31	Z31	X32	Y32	Z32	X33	Y33	Z33	X34	Y34	Z34	X35	Y35	Z35	X36	Y36	Z36	X37	Y37	Z37	X38	Y38	Z38	X39	Y39	Z39	X40	Y40	Z40	X41	Y41	Z41	X42	Y42	Z42	X43	Y43	Z43	X44	Y44	Z44	X45	Y45	Z45	

1	  0.010000	956.824453	1079.395357	-437.826484	954.994883	1097.150365	-206.803595	797.510362	1135.196875	-373.883158	794.150283	1133.447123	-284.708049	953.101619	856.671616	-164.894112	1058.078803	842.810817	-175.539254	1049.566818	722.991309	-191.150709	778.120359	892.055155	-481.765358	800.249111	762.635242	-464.421372	708.089100	695.045950	-448.576328	1156.790997	504.531473	-228.165725	1111.992475	448.719076	-186.530804	1129.831780	322.372792	-233.683326	1086.670862	206.020000	-220.946727	1113.422757	231.037591	-298.327596	609.175160	475.110402	-402.330680	475.846561	461.492293	-408.188190	463.723188	350.457578	-365.323208	1031.652886	188.286665	-290.673627	1250.014505	151.313664	-252.882138	1175.460327	127.874212	-190.475749	312.113904	341.826855	-300.262228	386.526491	129.185986	-304.270185	324.844530	162.466317	-361.831929	921.835145	1606.529197	-469.215029	863.699740	1574.035232	-167.863423	966.687640	1522.161159	-282.603909	858.922498	1605.351574	-323.544886	849.233014	1559.689190	-501.097728	756.091499	1464.558615	-100.907283	679.579146	1440.889610	-150.652946	645.984153	1397.510358	-106.232517	622.977895	1334.055650	-74.788996	621.117018	1319.832465	-166.132014	884.433308	1469.560747	-556.328659	832.607445	1382.454102	-554.419390	875.359786	1338.941139	-597.577582	901.241849	1261.527552	-607.294819	836.907909	1248.309107	-535.807384	666.969574	1269.036781	-78.993261	864.631088	1256.800161	-100.341996	842.886828	1193.488722	-90.642012	956.241494	1260.855576	-526.018995	1012.991372	1398.188010	-432.483048	1051.064284	1342.625735	-419.678458	
2	  0.020000	957.364228	1082.865578	-439.585888	955.958377	1098.044903	-208.893668	797.822529	1136.565132	-375.092966	794.972211	1134.081512	-286.112758	950.078584	854.910584	-165.293490	1054.614246	835.749403	-175.708142	1040.640145	715.888974	-189.091240	783.051279	891.951480	-483.681253	805.170790	763.543364	-463.729856	713.300637	695.490339	-449.633700	1156.158112	498.147287	-229.122225	1116.326143	438.425818	-188.712015	1146.564982	315.249495	-236.812254	1114.522822	195.349082	-224.607449	1137.748819	223.912334	-301.902856	606.647424	480.191741	-403.735611	472.121940	476.716073	-409.085107	451.958960	367.031854	-367.384724	1059.624497	175.144105	-293.001358	1281.145382	155.341147	-262.605095	1210.803280	123.449262	-198.174705	297.918776	367.584157	-303.380692	362.569415	151.953283	-304.980815	303.443804	187.404681	-363.888434	923.030648	1609.675758	-467.903448	863.829074	1575.331001	-167.054471	966.703842	1524.039640	-281.777896	859.580405	1607.606361	-322.435864	850.767149	1562.564991	-500.136555	755.306639	1465.809079	-101.993712	679.683473	1441.953876	-154.332037	645.178050	1398.283181	-111.164366	621.469091	1334.755748	-80.287024	622.014663	1320.501545	-171.737834	885.868859	1473.512550	-555.861702	833.889962	1386.668790	-555.680624	877.097422	1343.638285	-599.077850	902.407569	1266.026074	-609.467439	837.185967	1252.478649	-538.916855	666.051858	1269.783208	-83.552889	864.534565	1259.452934	-100.083753	842.784013	1196.062629	-91.239137	956.567400	1263.728448	-527.617098	1013.804953	1399.183581	-431.210728	1050.816607	1342.870245	-418.960710	
3	  0.030000	957.788566	1085.571988	-441.159091	956.703193	1098.727236	-210.366943	797.843882	1136.980716	-376.249297	795.480046	1134.031984	-287.341879	947.525587	852.620856	-165.091310	1050.555208	827.952186	-175.906604	1031.173859	708.365848	-187.923669	787.858421	891.218181	-485.014465	810.327617	763.558762	-463.392186	719.065754	694.711288	-450.106002	1154.342888	491.972284	-230.853547	1119.417999	429.132208	-191.122849	1160.190098	309.278796	-240.567102	1137.941712	186.722285	-228.765645	1158.286942	218.109786	-305.859110	605.817663	484.182812	-404.824887	470.748157	491.350340	-409.879153	442.342008	383.369893	-369.647484	1083.385655	164.151894	-296.066422	1306.838125	159.741032	-272.012589	1240.607125	120.682391	-206.039162	286.628540	393.593062	-306.554110	340.257805	175.073513	-307.307263	283.710787	213.226152	-366.907490	924.508630	1612.054019	-466.535067	864.448961	1575.950140	-166.110384	966.835182	1525.047379	-280.942618	860.305088	1609.184948	-321.325531	852.361493	1565.108068	-499.126170	755.056164	1466.044957	-103.041089	680.282873	1442.261639	-157.547888	645.038401	1398.167202	-115.604698	620.754113	1334.481957	-85.331367	623.650271	1320.173228	-177.012361	887.123010	1476.946548	-555.465847	834.715472	1390.486602	-556.823701	878.073732	1347.866991	-600.597629	902.675585	1270.087103	-611.916667	836.955606	1256.135929	-542.044420	665.800761	1269.548582	-87.563361	864.989246	1260.751402	-99.600067	843.156043	1197.257449	-91.607285	956.424926	1265.581613	-529.810619	1015.142524	1398.546200	-430.433523	1051.065559	1341.235155	-419.188001	
4	  0.040000	958.031428	1086.983897	-442.464844	957.188331	1099.089859	-211.185382	797.433288	1135.949261	-377.335697	795.560345	1132.849949	-288.399724	945.225162	849.538422	-163.859483	1045.628773	819.133659	-176.162827	1021.443605	700.515364	-187.837179	792.257682	889.363426	-485.440689	815.815804	762.091185	-463.529892	725.708908	692.000645	-449.878278	1150.858985	486.250690	-233.320471	1120.350077	421.333527	-193.786092	1168.889921	304.779850	-244.924758	1154.238298	180.671304	-233.700484	1172.628754	214.064089	-310.397283	607.632245	486.446023	-405.517777	473.068553	504.807232	-410.539804	436.237968	399.101039	-372.130333	1100.354361	156.253133	-300.509467	1324.161896	163.863961	-280.733057	1261.487164	119.528663	-214.029716	280.132744	419.754299	-309.768686	320.743082	198.615770	-311.814613	267.000334	240.290774	-371.328005	926.360022	1613.170295	-465.123848	865.731442	1575.508452	-164.992103	967.119705	1524.675439	-280.155232	861.071120	1609.620964	-320.225288	854.013080	1567.046616	-498.016997	755.592216	1464.772403	-103.894591	681.544885	1441.346022	-159.963917	645.858675	1396.624395	-119.203940	621.233941	1332.653002	-89.585813	626.187975	1318.444676	-181.426394	888.067464	1479.578346	-555.166319	834.837425	1393.691541	-557.806049	877.908107	1351.355195	-602.160022	901.569850	1273.456530	-614.759547	835.909352	1259.038814	-545.208827	666.552212	1267.759844	-90.730038	866.283046	1259.988461	-98.811994	844.333291	1196.426049	-91.667526	955.518856	1265.884974	-532.896115	1017.176795	1395.384690	-430.379075	1051.970809	1336.808070	-420.861874	
